<mxfile host="Electron" modified="2025-06-07T14:44:53.414Z" agent="Mozilla/5.0 (Macintosh; Intel Mac OS X 10_15_7) AppleWebKit/537.36 (KHTML, like Gecko) draw.io/24.4.8 Chrome/124.0.6367.207 Electron/30.0.6 Safari/537.36" etag="xsmUy4_mn-jUqhydh686" version="24.4.8" type="device" pages="4">
  <diagram name="モジュール図" id="NQBN4MQ63ieQSNe4D1Qx">
    <mxGraphModel dx="788" dy="1900" grid="1" gridSize="10" guides="1" tooltips="1" connect="1" arrows="1" fold="1" page="1" pageScale="1" pageWidth="827" pageHeight="1169" math="0" shadow="0">
      <root>
        <mxCell id="0" />
        <mxCell id="1" parent="0" />
        <mxCell id="jRsQ34EoZkyOfGvpebpb-8" value="" style="rounded=0;whiteSpace=wrap;html=1;" parent="1" vertex="1">
          <mxGeometry y="-20" width="760" height="560" as="geometry" />
        </mxCell>
        <mxCell id="w2Mf41Uct7MnycB6mAhv-1" value="Android app" style="rounded=1;whiteSpace=wrap;html=1;fillColor=#cdeb8b;strokeColor=#36393d;" parent="1" vertex="1">
          <mxGeometry x="30" y="10" width="120" height="60" as="geometry" />
        </mxCell>
        <mxCell id="w2Mf41Uct7MnycB6mAhv-2" value="iOS app" style="rounded=1;whiteSpace=wrap;html=1;fillColor=#eeeeee;strokeColor=#36393d;" parent="1" vertex="1">
          <mxGeometry x="230" y="10" width="120" height="60" as="geometry" />
        </mxCell>
        <mxCell id="tKyYyVu8jle52_iL4WM9-2" value=":shared" style="rounded=1;whiteSpace=wrap;html=1;fillColor=#ffcccc;strokeColor=#36393d;" parent="1" vertex="1">
          <mxGeometry x="120" y="150" width="160" height="60" as="geometry" />
        </mxCell>
        <mxCell id="tKyYyVu8jle52_iL4WM9-3" value=":shared:domain" style="rounded=1;whiteSpace=wrap;html=1;fillColor=#ffcc99;strokeColor=#36393d;" parent="1" vertex="1">
          <mxGeometry x="240" y="300" width="160" height="60" as="geometry" />
        </mxCell>
        <mxCell id="tKyYyVu8jle52_iL4WM9-4" value=":shared:data" style="rounded=1;whiteSpace=wrap;html=1;fillColor=#ffcc99;strokeColor=#36393d;" parent="1" vertex="1">
          <mxGeometry x="240" y="450" width="160" height="60" as="geometry" />
        </mxCell>
        <mxCell id="jRsQ34EoZkyOfGvpebpb-1" value=":shared:viewmodel" style="rounded=1;whiteSpace=wrap;html=1;fillColor=#ffcc99;strokeColor=#36393d;" parent="1" vertex="1">
          <mxGeometry y="300" width="160" height="60" as="geometry" />
        </mxCell>
        <mxCell id="jRsQ34EoZkyOfGvpebpb-2" value="Use" style="endArrow=open;endSize=12;dashed=1;html=1;rounded=0;exitX=0.5;exitY=1;exitDx=0;exitDy=0;entryX=0.25;entryY=0;entryDx=0;entryDy=0;" parent="1" source="w2Mf41Uct7MnycB6mAhv-1" target="tKyYyVu8jle52_iL4WM9-2" edge="1">
          <mxGeometry width="160" relative="1" as="geometry">
            <mxPoint x="60" y="140" as="sourcePoint" />
            <mxPoint x="220" y="140" as="targetPoint" />
          </mxGeometry>
        </mxCell>
        <mxCell id="jRsQ34EoZkyOfGvpebpb-3" value="Use" style="endArrow=open;endSize=12;dashed=1;html=1;rounded=0;exitX=0.5;exitY=1;exitDx=0;exitDy=0;entryX=0.75;entryY=0;entryDx=0;entryDy=0;" parent="1" source="w2Mf41Uct7MnycB6mAhv-2" target="tKyYyVu8jle52_iL4WM9-2" edge="1">
          <mxGeometry width="160" relative="1" as="geometry">
            <mxPoint x="100" y="80" as="sourcePoint" />
            <mxPoint x="170" y="160" as="targetPoint" />
          </mxGeometry>
        </mxCell>
        <mxCell id="jRsQ34EoZkyOfGvpebpb-4" value="Use" style="endArrow=open;endSize=12;dashed=1;html=1;rounded=0;exitX=0.25;exitY=1;exitDx=0;exitDy=0;entryX=0.5;entryY=0;entryDx=0;entryDy=0;" parent="1" source="tKyYyVu8jle52_iL4WM9-2" target="jRsQ34EoZkyOfGvpebpb-1" edge="1">
          <mxGeometry width="160" relative="1" as="geometry">
            <mxPoint x="100" y="80" as="sourcePoint" />
            <mxPoint x="170" y="160" as="targetPoint" />
          </mxGeometry>
        </mxCell>
        <mxCell id="jRsQ34EoZkyOfGvpebpb-5" value="Use" style="endArrow=open;endSize=12;dashed=1;html=1;rounded=0;exitX=0.7;exitY=0.983;exitDx=0;exitDy=0;entryX=0.5;entryY=0;entryDx=0;entryDy=0;exitPerimeter=0;" parent="1" source="tKyYyVu8jle52_iL4WM9-2" target="tKyYyVu8jle52_iL4WM9-3" edge="1">
          <mxGeometry width="160" relative="1" as="geometry">
            <mxPoint x="170" y="220" as="sourcePoint" />
            <mxPoint x="90" y="310" as="targetPoint" />
          </mxGeometry>
        </mxCell>
        <mxCell id="jRsQ34EoZkyOfGvpebpb-6" value="Use" style="endArrow=open;endSize=12;dashed=1;html=1;rounded=0;exitX=1;exitY=0.5;exitDx=0;exitDy=0;entryX=0;entryY=0.5;entryDx=0;entryDy=0;" parent="1" source="jRsQ34EoZkyOfGvpebpb-1" target="tKyYyVu8jle52_iL4WM9-3" edge="1">
          <mxGeometry width="160" relative="1" as="geometry">
            <mxPoint x="170" y="220" as="sourcePoint" />
            <mxPoint x="90" y="310" as="targetPoint" />
          </mxGeometry>
        </mxCell>
        <mxCell id="jRsQ34EoZkyOfGvpebpb-7" value="" style="endArrow=block;dashed=1;endFill=0;endSize=12;html=1;rounded=0;entryX=0.5;entryY=1;entryDx=0;entryDy=0;" parent="1" source="tKyYyVu8jle52_iL4WM9-4" target="tKyYyVu8jle52_iL4WM9-3" edge="1">
          <mxGeometry width="160" relative="1" as="geometry">
            <mxPoint x="170" y="390" as="sourcePoint" />
            <mxPoint x="330" y="390" as="targetPoint" />
          </mxGeometry>
        </mxCell>
        <mxCell id="fC0vLnt_tkzdyjv6j_IS-1" value="kmp-tutorial プロジェクト" style="rounded=1;whiteSpace=wrap;html=1;arcSize=6;horizontal=1;verticalAlign=top;" vertex="1" parent="1">
          <mxGeometry x="480" y="300" width="250" height="210" as="geometry" />
        </mxCell>
        <mxCell id="fC0vLnt_tkzdyjv6j_IS-2" value=":kmp-tutorial-shared" style="rounded=1;whiteSpace=wrap;html=1;fillColor=#ffcc99;strokeColor=#36393d;" vertex="1" parent="1">
          <mxGeometry x="525" y="380" width="160" height="60" as="geometry" />
        </mxCell>
        <mxCell id="fC0vLnt_tkzdyjv6j_IS-3" value="Use" style="endArrow=open;endSize=12;dashed=1;html=1;rounded=0;exitX=1;exitY=0.5;exitDx=0;exitDy=0;entryX=0.25;entryY=0;entryDx=0;entryDy=0;" edge="1" parent="1" source="tKyYyVu8jle52_iL4WM9-2" target="fC0vLnt_tkzdyjv6j_IS-2">
          <mxGeometry width="160" relative="1" as="geometry">
            <mxPoint x="242" y="219" as="sourcePoint" />
            <mxPoint x="330" y="310" as="targetPoint" />
          </mxGeometry>
        </mxCell>
      </root>
    </mxGraphModel>
  </diagram>
  <diagram id="MsnC-eRFc5Cq93zteFe4" name="architecture">
    <mxGraphModel dx="791" dy="669" grid="1" gridSize="10" guides="1" tooltips="1" connect="1" arrows="1" fold="1" page="1" pageScale="1" pageWidth="827" pageHeight="1169" math="0" shadow="0">
      <root>
        <mxCell id="0" />
        <mxCell id="1" parent="0" />
        <mxCell id="A_dnvU0fXm4ckU2wYK4s-1" value="composeApp" style="shape=module;align=left;spacingLeft=20;align=center;verticalAlign=top;whiteSpace=wrap;html=1;" parent="1" vertex="1">
          <mxGeometry x="80" y="40" width="240" height="70" as="geometry" />
        </mxCell>
        <mxCell id="A_dnvU0fXm4ckU2wYK4s-2" value="iosApp" style="shape=module;align=left;spacingLeft=20;align=center;verticalAlign=top;whiteSpace=wrap;html=1;" parent="1" vertex="1">
          <mxGeometry x="80" y="160" width="240" height="70" as="geometry" />
        </mxCell>
        <mxCell id="A_dnvU0fXm4ckU2wYK4s-7" value="firebase-kotlin-sdk" style="shape=module;align=left;spacingLeft=20;align=center;verticalAlign=top;whiteSpace=wrap;html=1;" parent="1" vertex="1">
          <mxGeometry x="420" y="40" width="240" height="70" as="geometry" />
        </mxCell>
        <mxCell id="A_dnvU0fXm4ckU2wYK4s-8" value="" style="endArrow=open;endSize=12;dashed=1;html=1;rounded=0;exitX=0.5;exitY=0;exitDx=0;exitDy=0;entryX=0.5;entryY=1;entryDx=0;entryDy=0;" parent="1" source="A_dnvU0fXm4ckU2wYK4s-2" target="A_dnvU0fXm4ckU2wYK4s-1" edge="1">
          <mxGeometry width="160" relative="1" as="geometry">
            <mxPoint x="200" y="340" as="sourcePoint" />
            <mxPoint x="360" y="340" as="targetPoint" />
          </mxGeometry>
        </mxCell>
        <mxCell id="A_dnvU0fXm4ckU2wYK4s-9" value="Use" style="edgeLabel;html=1;align=center;verticalAlign=middle;resizable=0;points=[];" parent="A_dnvU0fXm4ckU2wYK4s-8" vertex="1" connectable="0">
          <mxGeometry x="-0.16" y="2" relative="1" as="geometry">
            <mxPoint as="offset" />
          </mxGeometry>
        </mxCell>
        <mxCell id="A_dnvU0fXm4ckU2wYK4s-10" value="" style="endArrow=open;endSize=12;dashed=1;html=1;rounded=0;entryX=0;entryY=0;entryDx=0;entryDy=35;entryPerimeter=0;" parent="1" source="A_dnvU0fXm4ckU2wYK4s-1" target="A_dnvU0fXm4ckU2wYK4s-7" edge="1">
          <mxGeometry width="160" relative="1" as="geometry">
            <mxPoint x="210" y="170" as="sourcePoint" />
            <mxPoint x="210" y="120" as="targetPoint" />
          </mxGeometry>
        </mxCell>
        <mxCell id="A_dnvU0fXm4ckU2wYK4s-11" value="Use" style="edgeLabel;html=1;align=center;verticalAlign=middle;resizable=0;points=[];" parent="A_dnvU0fXm4ckU2wYK4s-10" vertex="1" connectable="0">
          <mxGeometry x="-0.16" y="2" relative="1" as="geometry">
            <mxPoint as="offset" />
          </mxGeometry>
        </mxCell>
      </root>
    </mxGraphModel>
  </diagram>
  <diagram id="S-t0WXwCRAKBCqSBMDNP" name="class_diagram">
    <mxGraphModel dx="2115" dy="2124" grid="1" gridSize="10" guides="1" tooltips="1" connect="1" arrows="1" fold="1" page="1" pageScale="1" pageWidth="827" pageHeight="1169" math="0" shadow="0">
      <root>
        <mxCell id="0" />
        <mxCell id="1" parent="0" />
        <mxCell id="QUMZ9p8XGPeJNGY721WN-1" value=":kmp-tutorial-shared" style="shape=module;align=left;spacingLeft=20;align=center;verticalAlign=top;whiteSpace=wrap;html=1;fillColor=#fff2cc;strokeColor=#d6b656;" vertex="1" parent="1">
          <mxGeometry x="750" y="360" width="740" height="410" as="geometry" />
        </mxCell>
        <mxCell id="ZGd2jc4x_hF2NOg9Z89N-1" value=":composeApp" style="shape=module;align=left;spacingLeft=20;align=center;verticalAlign=top;whiteSpace=wrap;html=1;fillColor=#dae8fc;strokeColor=#6c8ebf;" parent="1" vertex="1">
          <mxGeometry x="270" y="-90" width="740" height="280" as="geometry" />
        </mxCell>
        <mxCell id="ZGd2jc4x_hF2NOg9Z89N-2" value=":shared-core" style="shape=module;align=left;spacingLeft=20;align=center;verticalAlign=top;whiteSpace=wrap;html=1;fillColor=#ffe6cc;strokeColor=#d79b00;" parent="1" vertex="1">
          <mxGeometry y="360" width="720" height="250" as="geometry" />
        </mxCell>
        <mxCell id="ZGd2jc4x_hF2NOg9Z89N-4" value="MainActivity" style="swimlane;fontStyle=1;align=center;verticalAlign=top;childLayout=stackLayout;horizontal=1;startSize=26;horizontalStack=0;resizeParent=1;resizeParentMax=0;resizeLast=0;collapsible=1;marginBottom=0;whiteSpace=wrap;html=1;" parent="1" vertex="1">
          <mxGeometry x="470" y="-44" width="160" height="34" as="geometry" />
        </mxCell>
        <mxCell id="ZGd2jc4x_hF2NOg9Z89N-6" value="" style="line;strokeWidth=1;fillColor=none;align=left;verticalAlign=middle;spacingTop=-1;spacingLeft=3;spacingRight=3;rotatable=0;labelPosition=right;points=[];portConstraint=eastwest;strokeColor=inherit;" parent="ZGd2jc4x_hF2NOg9Z89N-4" vertex="1">
          <mxGeometry y="26" width="160" height="8" as="geometry" />
        </mxCell>
        <mxCell id="ZGd2jc4x_hF2NOg9Z89N-8" value="GreetingScreen" style="swimlane;fontStyle=1;align=center;verticalAlign=top;childLayout=stackLayout;horizontal=1;startSize=26;horizontalStack=0;resizeParent=1;resizeParentMax=0;resizeLast=0;collapsible=1;marginBottom=0;whiteSpace=wrap;html=1;" parent="1" vertex="1">
          <mxGeometry x="290" y="40" width="160" height="34" as="geometry" />
        </mxCell>
        <mxCell id="ZGd2jc4x_hF2NOg9Z89N-9" value="" style="line;strokeWidth=1;fillColor=none;align=left;verticalAlign=middle;spacingTop=-1;spacingLeft=3;spacingRight=3;rotatable=0;labelPosition=right;points=[];portConstraint=eastwest;strokeColor=inherit;" parent="ZGd2jc4x_hF2NOg9Z89N-8" vertex="1">
          <mxGeometry y="26" width="160" height="8" as="geometry" />
        </mxCell>
        <mxCell id="ZGd2jc4x_hF2NOg9Z89N-10" value="GrepScreen" style="swimlane;fontStyle=1;align=center;verticalAlign=top;childLayout=stackLayout;horizontal=1;startSize=26;horizontalStack=0;resizeParent=1;resizeParentMax=0;resizeLast=0;collapsible=1;marginBottom=0;whiteSpace=wrap;html=1;" parent="1" vertex="1">
          <mxGeometry x="470" y="40" width="160" height="34" as="geometry" />
        </mxCell>
        <mxCell id="ZGd2jc4x_hF2NOg9Z89N-11" value="" style="line;strokeWidth=1;fillColor=none;align=left;verticalAlign=middle;spacingTop=-1;spacingLeft=3;spacingRight=3;rotatable=0;labelPosition=right;points=[];portConstraint=eastwest;strokeColor=inherit;" parent="ZGd2jc4x_hF2NOg9Z89N-10" vertex="1">
          <mxGeometry y="26" width="160" height="8" as="geometry" />
        </mxCell>
        <mxCell id="ZGd2jc4x_hF2NOg9Z89N-12" value="HomeScreen" style="swimlane;fontStyle=1;align=center;verticalAlign=top;childLayout=stackLayout;horizontal=1;startSize=26;horizontalStack=0;resizeParent=1;resizeParentMax=0;resizeLast=0;collapsible=1;marginBottom=0;whiteSpace=wrap;html=1;" parent="1" vertex="1">
          <mxGeometry x="650" y="40" width="160" height="34" as="geometry" />
        </mxCell>
        <mxCell id="ZGd2jc4x_hF2NOg9Z89N-13" value="" style="line;strokeWidth=1;fillColor=none;align=left;verticalAlign=middle;spacingTop=-1;spacingLeft=3;spacingRight=3;rotatable=0;labelPosition=right;points=[];portConstraint=eastwest;strokeColor=inherit;" parent="ZGd2jc4x_hF2NOg9Z89N-12" vertex="1">
          <mxGeometry y="26" width="160" height="8" as="geometry" />
        </mxCell>
        <mxCell id="ZGd2jc4x_hF2NOg9Z89N-14" value="RocketLaunchScreen" style="swimlane;fontStyle=1;align=center;verticalAlign=top;childLayout=stackLayout;horizontal=1;startSize=26;horizontalStack=0;resizeParent=1;resizeParentMax=0;resizeLast=0;collapsible=1;marginBottom=0;whiteSpace=wrap;html=1;" parent="1" vertex="1">
          <mxGeometry x="830" y="40" width="160" height="34" as="geometry" />
        </mxCell>
        <mxCell id="ZGd2jc4x_hF2NOg9Z89N-15" value="" style="line;strokeWidth=1;fillColor=none;align=left;verticalAlign=middle;spacingTop=-1;spacingLeft=3;spacingRight=3;rotatable=0;labelPosition=right;points=[];portConstraint=eastwest;strokeColor=inherit;" parent="ZGd2jc4x_hF2NOg9Z89N-14" vertex="1">
          <mxGeometry y="26" width="160" height="8" as="geometry" />
        </mxCell>
        <mxCell id="ZGd2jc4x_hF2NOg9Z89N-16" value="CreatePhrasesUseCase" style="swimlane;fontStyle=1;align=center;verticalAlign=top;childLayout=stackLayout;horizontal=1;startSize=26;horizontalStack=0;resizeParent=1;resizeParentMax=0;resizeLast=0;collapsible=1;marginBottom=0;whiteSpace=wrap;html=1;" parent="1" vertex="1">
          <mxGeometry x="30" y="480" width="190" height="34" as="geometry" />
        </mxCell>
        <mxCell id="ZGd2jc4x_hF2NOg9Z89N-17" value="" style="line;strokeWidth=1;fillColor=none;align=left;verticalAlign=middle;spacingTop=-1;spacingLeft=3;spacingRight=3;rotatable=0;labelPosition=right;points=[];portConstraint=eastwest;strokeColor=inherit;" parent="ZGd2jc4x_hF2NOg9Z89N-16" vertex="1">
          <mxGeometry y="26" width="190" height="8" as="geometry" />
        </mxCell>
        <mxCell id="ZGd2jc4x_hF2NOg9Z89N-18" value="GrepViewModel" style="swimlane;fontStyle=1;align=center;verticalAlign=top;childLayout=stackLayout;horizontal=1;startSize=26;horizontalStack=0;resizeParent=1;resizeParentMax=0;resizeLast=0;collapsible=1;marginBottom=0;whiteSpace=wrap;html=1;" parent="1" vertex="1">
          <mxGeometry x="470" y="120" width="160" height="34" as="geometry" />
        </mxCell>
        <mxCell id="ZGd2jc4x_hF2NOg9Z89N-19" value="" style="line;strokeWidth=1;fillColor=none;align=left;verticalAlign=middle;spacingTop=-1;spacingLeft=3;spacingRight=3;rotatable=0;labelPosition=right;points=[];portConstraint=eastwest;strokeColor=inherit;" parent="ZGd2jc4x_hF2NOg9Z89N-18" vertex="1">
          <mxGeometry y="26" width="160" height="8" as="geometry" />
        </mxCell>
        <mxCell id="ZGd2jc4x_hF2NOg9Z89N-20" value="RocketLaunchViewModel" style="swimlane;fontStyle=1;align=center;verticalAlign=top;childLayout=stackLayout;horizontal=1;startSize=26;horizontalStack=0;resizeParent=1;resizeParentMax=0;resizeLast=0;collapsible=1;marginBottom=0;whiteSpace=wrap;html=1;" parent="1" vertex="1">
          <mxGeometry x="830" y="120" width="160" height="34" as="geometry" />
        </mxCell>
        <mxCell id="ZGd2jc4x_hF2NOg9Z89N-21" value="" style="line;strokeWidth=1;fillColor=none;align=left;verticalAlign=middle;spacingTop=-1;spacingLeft=3;spacingRight=3;rotatable=0;labelPosition=right;points=[];portConstraint=eastwest;strokeColor=inherit;" parent="ZGd2jc4x_hF2NOg9Z89N-20" vertex="1">
          <mxGeometry y="26" width="160" height="8" as="geometry" />
        </mxCell>
        <mxCell id="ZGd2jc4x_hF2NOg9Z89N-22" value=":shared-viiewmodel" style="shape=module;align=left;spacingLeft=20;align=center;verticalAlign=top;whiteSpace=wrap;html=1;fillColor=#d5e8d4;strokeColor=#82b366;" parent="1" vertex="1">
          <mxGeometry x="-120" y="240" width="200" height="100" as="geometry" />
        </mxCell>
        <mxCell id="ZGd2jc4x_hF2NOg9Z89N-23" value="GreetingSharedViewModel" style="swimlane;fontStyle=1;align=center;verticalAlign=top;childLayout=stackLayout;horizontal=1;startSize=26;horizontalStack=0;resizeParent=1;resizeParentMax=0;resizeLast=0;collapsible=1;marginBottom=0;whiteSpace=wrap;html=1;" parent="1" vertex="1">
          <mxGeometry x="-90" y="286" width="160" height="34" as="geometry" />
        </mxCell>
        <mxCell id="ZGd2jc4x_hF2NOg9Z89N-24" value="" style="line;strokeWidth=1;fillColor=none;align=left;verticalAlign=middle;spacingTop=-1;spacingLeft=3;spacingRight=3;rotatable=0;labelPosition=right;points=[];portConstraint=eastwest;strokeColor=inherit;" parent="ZGd2jc4x_hF2NOg9Z89N-23" vertex="1">
          <mxGeometry y="26" width="160" height="8" as="geometry" />
        </mxCell>
        <mxCell id="ZGd2jc4x_hF2NOg9Z89N-27" value="CreatePhrasesUseCaseContract" style="swimlane;fontStyle=1;align=center;verticalAlign=top;childLayout=stackLayout;horizontal=1;startSize=26;horizontalStack=0;resizeParent=1;resizeParentMax=0;resizeLast=0;collapsible=1;marginBottom=0;whiteSpace=wrap;html=1;" parent="1" vertex="1">
          <mxGeometry x="30" y="406" width="190" height="34" as="geometry" />
        </mxCell>
        <mxCell id="ZGd2jc4x_hF2NOg9Z89N-28" value="" style="line;strokeWidth=1;fillColor=none;align=left;verticalAlign=middle;spacingTop=-1;spacingLeft=3;spacingRight=3;rotatable=0;labelPosition=right;points=[];portConstraint=eastwest;strokeColor=inherit;" parent="ZGd2jc4x_hF2NOg9Z89N-27" vertex="1">
          <mxGeometry y="26" width="190" height="8" as="geometry" />
        </mxCell>
        <mxCell id="ZGd2jc4x_hF2NOg9Z89N-29" value="GrepUseCase" style="swimlane;fontStyle=1;align=center;verticalAlign=top;childLayout=stackLayout;horizontal=1;startSize=26;horizontalStack=0;resizeParent=1;resizeParentMax=0;resizeLast=0;collapsible=1;marginBottom=0;whiteSpace=wrap;html=1;" parent="1" vertex="1">
          <mxGeometry x="240" y="480" width="190" height="34" as="geometry" />
        </mxCell>
        <mxCell id="ZGd2jc4x_hF2NOg9Z89N-30" value="" style="line;strokeWidth=1;fillColor=none;align=left;verticalAlign=middle;spacingTop=-1;spacingLeft=3;spacingRight=3;rotatable=0;labelPosition=right;points=[];portConstraint=eastwest;strokeColor=inherit;" parent="ZGd2jc4x_hF2NOg9Z89N-29" vertex="1">
          <mxGeometry y="26" width="190" height="8" as="geometry" />
        </mxCell>
        <mxCell id="ZGd2jc4x_hF2NOg9Z89N-31" value="GrepUseCaseContract" style="swimlane;fontStyle=1;align=center;verticalAlign=top;childLayout=stackLayout;horizontal=1;startSize=26;horizontalStack=0;resizeParent=1;resizeParentMax=0;resizeLast=0;collapsible=1;marginBottom=0;whiteSpace=wrap;html=1;" parent="1" vertex="1">
          <mxGeometry x="240" y="406" width="190" height="34" as="geometry" />
        </mxCell>
        <mxCell id="ZGd2jc4x_hF2NOg9Z89N-32" value="" style="line;strokeWidth=1;fillColor=none;align=left;verticalAlign=middle;spacingTop=-1;spacingLeft=3;spacingRight=3;rotatable=0;labelPosition=right;points=[];portConstraint=eastwest;strokeColor=inherit;" parent="ZGd2jc4x_hF2NOg9Z89N-31" vertex="1">
          <mxGeometry y="26" width="190" height="8" as="geometry" />
        </mxCell>
        <mxCell id="ZGd2jc4x_hF2NOg9Z89N-33" value="LoadRocketLaunchInfoUseCase" style="swimlane;fontStyle=1;align=center;verticalAlign=top;childLayout=stackLayout;horizontal=1;startSize=26;horizontalStack=0;resizeParent=1;resizeParentMax=0;resizeLast=0;collapsible=1;marginBottom=0;whiteSpace=wrap;html=1;" parent="1" vertex="1">
          <mxGeometry x="450" y="480" width="240" height="34" as="geometry" />
        </mxCell>
        <mxCell id="ZGd2jc4x_hF2NOg9Z89N-34" value="" style="line;strokeWidth=1;fillColor=none;align=left;verticalAlign=middle;spacingTop=-1;spacingLeft=3;spacingRight=3;rotatable=0;labelPosition=right;points=[];portConstraint=eastwest;strokeColor=inherit;" parent="ZGd2jc4x_hF2NOg9Z89N-33" vertex="1">
          <mxGeometry y="26" width="240" height="8" as="geometry" />
        </mxCell>
        <mxCell id="ZGd2jc4x_hF2NOg9Z89N-35" value="LoadRocketLaunchInfoUseCaseContract" style="swimlane;fontStyle=1;align=center;verticalAlign=top;childLayout=stackLayout;horizontal=1;startSize=26;horizontalStack=0;resizeParent=1;resizeParentMax=0;resizeLast=0;collapsible=1;marginBottom=0;whiteSpace=wrap;html=1;" parent="1" vertex="1">
          <mxGeometry x="450" y="406" width="240" height="34" as="geometry" />
        </mxCell>
        <mxCell id="ZGd2jc4x_hF2NOg9Z89N-36" value="" style="line;strokeWidth=1;fillColor=none;align=left;verticalAlign=middle;spacingTop=-1;spacingLeft=3;spacingRight=3;rotatable=0;labelPosition=right;points=[];portConstraint=eastwest;strokeColor=inherit;" parent="ZGd2jc4x_hF2NOg9Z89N-35" vertex="1">
          <mxGeometry y="26" width="240" height="8" as="geometry" />
        </mxCell>
        <mxCell id="ZGd2jc4x_hF2NOg9Z89N-37" value=":shared-data" style="shape=module;align=left;spacingLeft=20;align=center;verticalAlign=top;whiteSpace=wrap;html=1;fillColor=#e1d5e7;strokeColor=#9673a6;" parent="1" vertex="1">
          <mxGeometry y="640" width="720" height="120" as="geometry" />
        </mxCell>
        <mxCell id="ZGd2jc4x_hF2NOg9Z89N-38" value="PlatformRepository" style="swimlane;fontStyle=1;align=center;verticalAlign=top;childLayout=stackLayout;horizontal=1;startSize=26;horizontalStack=0;resizeParent=1;resizeParentMax=0;resizeLast=0;collapsible=1;marginBottom=0;whiteSpace=wrap;html=1;" parent="1" vertex="1">
          <mxGeometry x="30" y="690" width="190" height="34" as="geometry" />
        </mxCell>
        <mxCell id="ZGd2jc4x_hF2NOg9Z89N-39" value="" style="line;strokeWidth=1;fillColor=none;align=left;verticalAlign=middle;spacingTop=-1;spacingLeft=3;spacingRight=3;rotatable=0;labelPosition=right;points=[];portConstraint=eastwest;strokeColor=inherit;" parent="ZGd2jc4x_hF2NOg9Z89N-38" vertex="1">
          <mxGeometry y="26" width="190" height="8" as="geometry" />
        </mxCell>
        <mxCell id="ZGd2jc4x_hF2NOg9Z89N-40" value="RocketRepository" style="swimlane;fontStyle=1;align=center;verticalAlign=top;childLayout=stackLayout;horizontal=1;startSize=26;horizontalStack=0;resizeParent=1;resizeParentMax=0;resizeLast=0;collapsible=1;marginBottom=0;whiteSpace=wrap;html=1;" parent="1" vertex="1">
          <mxGeometry x="450" y="690" width="240" height="34" as="geometry" />
        </mxCell>
        <mxCell id="ZGd2jc4x_hF2NOg9Z89N-41" value="" style="line;strokeWidth=1;fillColor=none;align=left;verticalAlign=middle;spacingTop=-1;spacingLeft=3;spacingRight=3;rotatable=0;labelPosition=right;points=[];portConstraint=eastwest;strokeColor=inherit;" parent="ZGd2jc4x_hF2NOg9Z89N-40" vertex="1">
          <mxGeometry y="26" width="240" height="8" as="geometry" />
        </mxCell>
        <mxCell id="ZGd2jc4x_hF2NOg9Z89N-42" value="Use" style="endArrow=open;endSize=12;dashed=1;html=1;rounded=0;exitX=0.5;exitY=1;exitDx=0;exitDy=0;entryX=0.25;entryY=0;entryDx=0;entryDy=0;" parent="1" source="ZGd2jc4x_hF2NOg9Z89N-8" target="4IAgEV4bC5tVAGo7Nsea-1" edge="1">
          <mxGeometry width="160" relative="1" as="geometry">
            <mxPoint x="-60" y="480" as="sourcePoint" />
            <mxPoint x="500" y="280" as="targetPoint" />
          </mxGeometry>
        </mxCell>
        <mxCell id="ZGd2jc4x_hF2NOg9Z89N-43" value="Use" style="endArrow=open;endSize=12;dashed=1;html=1;rounded=0;exitX=0.5;exitY=1;exitDx=0;exitDy=0;entryX=0.5;entryY=0;entryDx=0;entryDy=0;" parent="1" source="ZGd2jc4x_hF2NOg9Z89N-23" target="ZGd2jc4x_hF2NOg9Z89N-27" edge="1">
          <mxGeometry width="160" relative="1" as="geometry">
            <mxPoint x="60" y="490" as="sourcePoint" />
            <mxPoint x="220" y="490" as="targetPoint" />
          </mxGeometry>
        </mxCell>
        <mxCell id="ZGd2jc4x_hF2NOg9Z89N-44" value="PlatformRepositoryContract" style="swimlane;fontStyle=1;align=center;verticalAlign=top;childLayout=stackLayout;horizontal=1;startSize=26;horizontalStack=0;resizeParent=1;resizeParentMax=0;resizeLast=0;collapsible=1;marginBottom=0;whiteSpace=wrap;html=1;" parent="1" vertex="1">
          <mxGeometry x="30" y="550" width="190" height="34" as="geometry" />
        </mxCell>
        <mxCell id="ZGd2jc4x_hF2NOg9Z89N-45" value="" style="line;strokeWidth=1;fillColor=none;align=left;verticalAlign=middle;spacingTop=-1;spacingLeft=3;spacingRight=3;rotatable=0;labelPosition=right;points=[];portConstraint=eastwest;strokeColor=inherit;" parent="ZGd2jc4x_hF2NOg9Z89N-44" vertex="1">
          <mxGeometry y="26" width="190" height="8" as="geometry" />
        </mxCell>
        <mxCell id="ZGd2jc4x_hF2NOg9Z89N-46" value="RocketRepositoryContract" style="swimlane;fontStyle=1;align=center;verticalAlign=top;childLayout=stackLayout;horizontal=1;startSize=26;horizontalStack=0;resizeParent=1;resizeParentMax=0;resizeLast=0;collapsible=1;marginBottom=0;whiteSpace=wrap;html=1;" parent="1" vertex="1">
          <mxGeometry x="450" y="550" width="240" height="34" as="geometry" />
        </mxCell>
        <mxCell id="ZGd2jc4x_hF2NOg9Z89N-47" value="" style="line;strokeWidth=1;fillColor=none;align=left;verticalAlign=middle;spacingTop=-1;spacingLeft=3;spacingRight=3;rotatable=0;labelPosition=right;points=[];portConstraint=eastwest;strokeColor=inherit;" parent="ZGd2jc4x_hF2NOg9Z89N-46" vertex="1">
          <mxGeometry y="26" width="240" height="8" as="geometry" />
        </mxCell>
        <mxCell id="ZGd2jc4x_hF2NOg9Z89N-48" value="" style="endArrow=block;dashed=1;endFill=0;endSize=12;html=1;rounded=0;entryX=0.5;entryY=1;entryDx=0;entryDy=0;exitX=0.5;exitY=0;exitDx=0;exitDy=0;" parent="1" source="ZGd2jc4x_hF2NOg9Z89N-16" target="ZGd2jc4x_hF2NOg9Z89N-27" edge="1">
          <mxGeometry width="160" relative="1" as="geometry">
            <mxPoint x="-190" y="630" as="sourcePoint" />
            <mxPoint x="-30" y="630" as="targetPoint" />
          </mxGeometry>
        </mxCell>
        <mxCell id="ZGd2jc4x_hF2NOg9Z89N-49" value="Use" style="endArrow=open;endSize=12;dashed=1;html=1;rounded=0;exitX=0.5;exitY=1;exitDx=0;exitDy=0;entryX=0.5;entryY=0;entryDx=0;entryDy=0;" parent="1" source="ZGd2jc4x_hF2NOg9Z89N-16" target="ZGd2jc4x_hF2NOg9Z89N-44" edge="1">
          <mxGeometry width="160" relative="1" as="geometry">
            <mxPoint x="-50" y="650" as="sourcePoint" />
            <mxPoint x="125" y="530" as="targetPoint" />
          </mxGeometry>
        </mxCell>
        <mxCell id="ZGd2jc4x_hF2NOg9Z89N-50" value="" style="endArrow=block;dashed=1;endFill=0;endSize=12;html=1;rounded=0;entryX=0.5;entryY=1;entryDx=0;entryDy=0;exitX=0.5;exitY=0;exitDx=0;exitDy=0;" parent="1" source="ZGd2jc4x_hF2NOg9Z89N-38" target="ZGd2jc4x_hF2NOg9Z89N-44" edge="1">
          <mxGeometry width="160" relative="1" as="geometry">
            <mxPoint x="-40" y="750" as="sourcePoint" />
            <mxPoint x="120" y="750" as="targetPoint" />
          </mxGeometry>
        </mxCell>
        <mxCell id="ZGd2jc4x_hF2NOg9Z89N-51" value="" style="endArrow=block;dashed=1;endFill=0;endSize=12;html=1;rounded=0;entryX=0.5;entryY=1;entryDx=0;entryDy=0;" parent="1" source="ZGd2jc4x_hF2NOg9Z89N-29" target="ZGd2jc4x_hF2NOg9Z89N-31" edge="1">
          <mxGeometry width="160" relative="1" as="geometry">
            <mxPoint x="160" y="790" as="sourcePoint" />
            <mxPoint x="320" y="790" as="targetPoint" />
          </mxGeometry>
        </mxCell>
        <mxCell id="ZGd2jc4x_hF2NOg9Z89N-52" value="" style="endArrow=block;dashed=1;endFill=0;endSize=12;html=1;rounded=0;entryX=0.5;entryY=1;entryDx=0;entryDy=0;exitX=0.5;exitY=0;exitDx=0;exitDy=0;" parent="1" edge="1">
          <mxGeometry width="160" relative="1" as="geometry">
            <mxPoint x="569.5" y="480" as="sourcePoint" />
            <mxPoint x="569.5" y="440" as="targetPoint" />
          </mxGeometry>
        </mxCell>
        <mxCell id="ZGd2jc4x_hF2NOg9Z89N-53" value="Use" style="endArrow=open;endSize=12;dashed=1;html=1;rounded=0;exitX=0.5;exitY=1;exitDx=0;exitDy=0;entryX=0.5;entryY=0;entryDx=0;entryDy=0;" parent="1" edge="1">
          <mxGeometry width="160" relative="1" as="geometry">
            <mxPoint x="569.5" y="514" as="sourcePoint" />
            <mxPoint x="569.5" y="550" as="targetPoint" />
          </mxGeometry>
        </mxCell>
        <mxCell id="ZGd2jc4x_hF2NOg9Z89N-54" value="" style="endArrow=block;dashed=1;endFill=0;endSize=12;html=1;rounded=0;entryX=0.5;entryY=1;entryDx=0;entryDy=0;exitX=0.5;exitY=0;exitDx=0;exitDy=0;" parent="1" edge="1">
          <mxGeometry width="160" relative="1" as="geometry">
            <mxPoint x="569.5" y="690" as="sourcePoint" />
            <mxPoint x="569.5" y="584" as="targetPoint" />
          </mxGeometry>
        </mxCell>
        <mxCell id="ZGd2jc4x_hF2NOg9Z89N-55" value="Use" style="endArrow=open;endSize=12;dashed=1;html=1;rounded=0;exitX=0.515;exitY=0.625;exitDx=0;exitDy=0;exitPerimeter=0;entryX=0.25;entryY=0;entryDx=0;entryDy=0;" parent="1" source="ZGd2jc4x_hF2NOg9Z89N-19" target="4IAgEV4bC5tVAGo7Nsea-29" edge="1">
          <mxGeometry width="160" relative="1" as="geometry">
            <mxPoint x="-10" y="94" as="sourcePoint" />
            <mxPoint x="620" y="270" as="targetPoint" />
          </mxGeometry>
        </mxCell>
        <mxCell id="ZGd2jc4x_hF2NOg9Z89N-56" value="SplashModel" style="swimlane;fontStyle=1;align=center;verticalAlign=top;childLayout=stackLayout;horizontal=1;startSize=26;horizontalStack=0;resizeParent=1;resizeParentMax=0;resizeLast=0;collapsible=1;marginBottom=0;whiteSpace=wrap;html=1;" parent="1" vertex="1">
          <mxGeometry x="650" y="120" width="160" height="34" as="geometry" />
        </mxCell>
        <mxCell id="ZGd2jc4x_hF2NOg9Z89N-57" value="" style="line;strokeWidth=1;fillColor=none;align=left;verticalAlign=middle;spacingTop=-1;spacingLeft=3;spacingRight=3;rotatable=0;labelPosition=right;points=[];portConstraint=eastwest;strokeColor=inherit;" parent="ZGd2jc4x_hF2NOg9Z89N-56" vertex="1">
          <mxGeometry y="26" width="160" height="8" as="geometry" />
        </mxCell>
        <mxCell id="ZGd2jc4x_hF2NOg9Z89N-58" value="Use" style="endArrow=open;endSize=12;dashed=1;html=1;rounded=0;exitX=0.5;exitY=1;exitDx=0;exitDy=0;entryX=0.25;entryY=0;entryDx=0;entryDy=0;" parent="1" source="ZGd2jc4x_hF2NOg9Z89N-20" target="ZGd2jc4x_hF2NOg9Z89N-35" edge="1">
          <mxGeometry width="160" relative="1" as="geometry">
            <mxPoint x="172" y="171" as="sourcePoint" />
            <mxPoint x="255" y="296" as="targetPoint" />
          </mxGeometry>
        </mxCell>
        <mxCell id="ZGd2jc4x_hF2NOg9Z89N-59" value="Use" style="endArrow=open;endSize=12;dashed=1;html=1;rounded=0;exitX=0.5;exitY=1;exitDx=0;exitDy=0;" parent="1" source="ZGd2jc4x_hF2NOg9Z89N-10" target="ZGd2jc4x_hF2NOg9Z89N-18" edge="1">
          <mxGeometry width="160" relative="1" as="geometry">
            <mxPoint x="490" y="210" as="sourcePoint" />
            <mxPoint x="650" y="210" as="targetPoint" />
          </mxGeometry>
        </mxCell>
        <mxCell id="ZGd2jc4x_hF2NOg9Z89N-60" value="Use" style="endArrow=open;endSize=12;dashed=1;html=1;rounded=0;exitX=0.5;exitY=1;exitDx=0;exitDy=0;entryX=0.5;entryY=0;entryDx=0;entryDy=0;" parent="1" source="ZGd2jc4x_hF2NOg9Z89N-12" target="ZGd2jc4x_hF2NOg9Z89N-56" edge="1">
          <mxGeometry width="160" relative="1" as="geometry">
            <mxPoint x="560" y="84" as="sourcePoint" />
            <mxPoint x="560" y="130" as="targetPoint" />
          </mxGeometry>
        </mxCell>
        <mxCell id="ZGd2jc4x_hF2NOg9Z89N-61" value="Use" style="endArrow=open;endSize=12;dashed=1;html=1;rounded=0;exitX=0.5;exitY=1;exitDx=0;exitDy=0;entryX=0.5;entryY=0;entryDx=0;entryDy=0;" parent="1" source="ZGd2jc4x_hF2NOg9Z89N-14" target="ZGd2jc4x_hF2NOg9Z89N-20" edge="1">
          <mxGeometry width="160" relative="1" as="geometry">
            <mxPoint x="570" y="94" as="sourcePoint" />
            <mxPoint x="570" y="140" as="targetPoint" />
          </mxGeometry>
        </mxCell>
        <mxCell id="ZGd2jc4x_hF2NOg9Z89N-62" value=":iosApp" style="shape=module;align=left;spacingLeft=20;align=center;verticalAlign=top;whiteSpace=wrap;html=1;fillColor=#f8cecc;strokeColor=#b85450;" parent="1" vertex="1">
          <mxGeometry x="1030" y="-90" width="200" height="280" as="geometry" />
        </mxCell>
        <mxCell id="ZGd2jc4x_hF2NOg9Z89N-63" value="iOSApp" style="swimlane;fontStyle=1;align=center;verticalAlign=top;childLayout=stackLayout;horizontal=1;startSize=26;horizontalStack=0;resizeParent=1;resizeParentMax=0;resizeLast=0;collapsible=1;marginBottom=0;whiteSpace=wrap;html=1;" parent="1" vertex="1">
          <mxGeometry x="1057" y="-44" width="160" height="34" as="geometry" />
        </mxCell>
        <mxCell id="ZGd2jc4x_hF2NOg9Z89N-64" value="" style="line;strokeWidth=1;fillColor=none;align=left;verticalAlign=middle;spacingTop=-1;spacingLeft=3;spacingRight=3;rotatable=0;labelPosition=right;points=[];portConstraint=eastwest;strokeColor=inherit;" parent="ZGd2jc4x_hF2NOg9Z89N-63" vertex="1">
          <mxGeometry y="26" width="160" height="8" as="geometry" />
        </mxCell>
        <mxCell id="ZGd2jc4x_hF2NOg9Z89N-66" value="ContentView" style="swimlane;fontStyle=1;align=center;verticalAlign=top;childLayout=stackLayout;horizontal=1;startSize=26;horizontalStack=0;resizeParent=1;resizeParentMax=0;resizeLast=0;collapsible=1;marginBottom=0;whiteSpace=wrap;html=1;" parent="1" vertex="1">
          <mxGeometry x="1057" y="120" width="160" height="34" as="geometry" />
        </mxCell>
        <mxCell id="ZGd2jc4x_hF2NOg9Z89N-67" value="" style="line;strokeWidth=1;fillColor=none;align=left;verticalAlign=middle;spacingTop=-1;spacingLeft=3;spacingRight=3;rotatable=0;labelPosition=right;points=[];portConstraint=eastwest;strokeColor=inherit;" parent="ZGd2jc4x_hF2NOg9Z89N-66" vertex="1">
          <mxGeometry y="26" width="160" height="8" as="geometry" />
        </mxCell>
        <mxCell id="ZGd2jc4x_hF2NOg9Z89N-68" value="Use" style="endArrow=open;endSize=12;dashed=1;html=1;rounded=0;exitX=0.5;exitY=1;exitDx=0;exitDy=0;entryX=0.5;entryY=0;entryDx=0;entryDy=0;" parent="1" source="ZGd2jc4x_hF2NOg9Z89N-4" target="ZGd2jc4x_hF2NOg9Z89N-10" edge="1">
          <mxGeometry width="160" relative="1" as="geometry">
            <mxPoint x="540" y="210" as="sourcePoint" />
            <mxPoint x="700" y="210" as="targetPoint" />
          </mxGeometry>
        </mxCell>
        <mxCell id="ZGd2jc4x_hF2NOg9Z89N-69" value="Use" style="endArrow=open;endSize=12;dashed=1;html=1;rounded=0;exitX=0.5;exitY=1;exitDx=0;exitDy=0;entryX=0.5;entryY=0;entryDx=0;entryDy=0;" parent="1" source="ZGd2jc4x_hF2NOg9Z89N-63" target="ZGd2jc4x_hF2NOg9Z89N-66" edge="1">
          <mxGeometry width="160" relative="1" as="geometry">
            <mxPoint x="560" as="sourcePoint" />
            <mxPoint x="560" y="50" as="targetPoint" />
          </mxGeometry>
        </mxCell>
        <mxCell id="ZGd2jc4x_hF2NOg9Z89N-70" value="Use" style="endArrow=open;endSize=12;dashed=1;html=1;rounded=0;entryX=0.75;entryY=0;entryDx=0;entryDy=0;exitX=0.5;exitY=1;exitDx=0;exitDy=0;" parent="1" source="ZGd2jc4x_hF2NOg9Z89N-66" target="4IAgEV4bC5tVAGo7Nsea-1" edge="1">
          <mxGeometry width="160" relative="1" as="geometry">
            <mxPoint x="1100" y="230" as="sourcePoint" />
            <mxPoint x="780" y="310" as="targetPoint" />
          </mxGeometry>
        </mxCell>
        <mxCell id="ZGd2jc4x_hF2NOg9Z89N-71" value="Use" style="endArrow=open;endSize=12;dashed=1;html=1;rounded=0;exitX=0.25;exitY=1;exitDx=0;exitDy=0;entryX=0.75;entryY=0;entryDx=0;entryDy=0;" parent="1" source="ZGd2jc4x_hF2NOg9Z89N-66" target="ZGd2jc4x_hF2NOg9Z89N-35" edge="1">
          <mxGeometry width="160" relative="1" as="geometry">
            <mxPoint x="757" y="154" as="sourcePoint" />
            <mxPoint x="990" y="320" as="targetPoint" />
          </mxGeometry>
        </mxCell>
        <mxCell id="ZGd2jc4x_hF2NOg9Z89N-72" value="Use" style="endArrow=open;endSize=12;dashed=1;html=1;rounded=0;exitX=0.75;exitY=1;exitDx=0;exitDy=0;entryX=0.75;entryY=0;entryDx=0;entryDy=0;" parent="1" source="ZGd2jc4x_hF2NOg9Z89N-66" target="4IAgEV4bC5tVAGo7Nsea-29" edge="1">
          <mxGeometry width="160" relative="1" as="geometry">
            <mxPoint x="530" y="154" as="sourcePoint" />
            <mxPoint x="1010" y="340" as="targetPoint" />
          </mxGeometry>
        </mxCell>
        <mxCell id="4IAgEV4bC5tVAGo7Nsea-1" value="GreetingSharedViewModel" style="swimlane;fontStyle=1;align=center;verticalAlign=top;childLayout=stackLayout;horizontal=1;startSize=26;horizontalStack=0;resizeParent=1;resizeParentMax=0;resizeLast=0;collapsible=1;marginBottom=0;whiteSpace=wrap;html=1;" vertex="1" parent="1">
          <mxGeometry x="795" y="406" width="160" height="34" as="geometry" />
        </mxCell>
        <mxCell id="4IAgEV4bC5tVAGo7Nsea-2" value="" style="line;strokeWidth=1;fillColor=none;align=left;verticalAlign=middle;spacingTop=-1;spacingLeft=3;spacingRight=3;rotatable=0;labelPosition=right;points=[];portConstraint=eastwest;strokeColor=inherit;" vertex="1" parent="4IAgEV4bC5tVAGo7Nsea-1">
          <mxGeometry y="26" width="160" height="8" as="geometry" />
        </mxCell>
        <mxCell id="4IAgEV4bC5tVAGo7Nsea-3" value="CreatePhrasesUseCase" style="swimlane;fontStyle=1;align=center;verticalAlign=top;childLayout=stackLayout;horizontal=1;startSize=26;horizontalStack=0;resizeParent=1;resizeParentMax=0;resizeLast=0;collapsible=1;marginBottom=0;whiteSpace=wrap;html=1;" vertex="1" parent="1">
          <mxGeometry x="780" y="552" width="190" height="34" as="geometry" />
        </mxCell>
        <mxCell id="4IAgEV4bC5tVAGo7Nsea-4" value="" style="line;strokeWidth=1;fillColor=none;align=left;verticalAlign=middle;spacingTop=-1;spacingLeft=3;spacingRight=3;rotatable=0;labelPosition=right;points=[];portConstraint=eastwest;strokeColor=inherit;" vertex="1" parent="4IAgEV4bC5tVAGo7Nsea-3">
          <mxGeometry y="26" width="190" height="8" as="geometry" />
        </mxCell>
        <mxCell id="4IAgEV4bC5tVAGo7Nsea-5" value="CreatePhrasesUseCaseContract" style="swimlane;fontStyle=1;align=center;verticalAlign=top;childLayout=stackLayout;horizontal=1;startSize=26;horizontalStack=0;resizeParent=1;resizeParentMax=0;resizeLast=0;collapsible=1;marginBottom=0;whiteSpace=wrap;html=1;" vertex="1" parent="1">
          <mxGeometry x="780" y="478" width="190" height="34" as="geometry" />
        </mxCell>
        <mxCell id="4IAgEV4bC5tVAGo7Nsea-6" value="" style="line;strokeWidth=1;fillColor=none;align=left;verticalAlign=middle;spacingTop=-1;spacingLeft=3;spacingRight=3;rotatable=0;labelPosition=right;points=[];portConstraint=eastwest;strokeColor=inherit;" vertex="1" parent="4IAgEV4bC5tVAGo7Nsea-5">
          <mxGeometry y="26" width="190" height="8" as="geometry" />
        </mxCell>
        <mxCell id="4IAgEV4bC5tVAGo7Nsea-7" value="GrepUseCase" style="swimlane;fontStyle=1;align=center;verticalAlign=top;childLayout=stackLayout;horizontal=1;startSize=26;horizontalStack=0;resizeParent=1;resizeParentMax=0;resizeLast=0;collapsible=1;marginBottom=0;whiteSpace=wrap;html=1;" vertex="1" parent="1">
          <mxGeometry x="1016" y="480" width="190" height="34" as="geometry" />
        </mxCell>
        <mxCell id="4IAgEV4bC5tVAGo7Nsea-8" value="" style="line;strokeWidth=1;fillColor=none;align=left;verticalAlign=middle;spacingTop=-1;spacingLeft=3;spacingRight=3;rotatable=0;labelPosition=right;points=[];portConstraint=eastwest;strokeColor=inherit;" vertex="1" parent="4IAgEV4bC5tVAGo7Nsea-7">
          <mxGeometry y="26" width="190" height="8" as="geometry" />
        </mxCell>
        <mxCell id="4IAgEV4bC5tVAGo7Nsea-10" value="LoadRocketLaunchInfoUseCase" style="swimlane;fontStyle=1;align=center;verticalAlign=top;childLayout=stackLayout;horizontal=1;startSize=26;horizontalStack=0;resizeParent=1;resizeParentMax=0;resizeLast=0;collapsible=1;marginBottom=0;whiteSpace=wrap;html=1;" vertex="1" parent="1">
          <mxGeometry x="1226" y="480" width="240" height="34" as="geometry" />
        </mxCell>
        <mxCell id="4IAgEV4bC5tVAGo7Nsea-11" value="" style="line;strokeWidth=1;fillColor=none;align=left;verticalAlign=middle;spacingTop=-1;spacingLeft=3;spacingRight=3;rotatable=0;labelPosition=right;points=[];portConstraint=eastwest;strokeColor=inherit;" vertex="1" parent="4IAgEV4bC5tVAGo7Nsea-10">
          <mxGeometry y="26" width="240" height="8" as="geometry" />
        </mxCell>
        <mxCell id="4IAgEV4bC5tVAGo7Nsea-12" value="LoadRocketLaunchInfoUseCaseContract" style="swimlane;fontStyle=1;align=center;verticalAlign=top;childLayout=stackLayout;horizontal=1;startSize=26;horizontalStack=0;resizeParent=1;resizeParentMax=0;resizeLast=0;collapsible=1;marginBottom=0;whiteSpace=wrap;html=1;" vertex="1" parent="1">
          <mxGeometry x="1226" y="406" width="240" height="34" as="geometry" />
        </mxCell>
        <mxCell id="4IAgEV4bC5tVAGo7Nsea-13" value="" style="line;strokeWidth=1;fillColor=none;align=left;verticalAlign=middle;spacingTop=-1;spacingLeft=3;spacingRight=3;rotatable=0;labelPosition=right;points=[];portConstraint=eastwest;strokeColor=inherit;" vertex="1" parent="4IAgEV4bC5tVAGo7Nsea-12">
          <mxGeometry y="26" width="240" height="8" as="geometry" />
        </mxCell>
        <mxCell id="4IAgEV4bC5tVAGo7Nsea-14" value="PlatformRepository" style="swimlane;fontStyle=1;align=center;verticalAlign=top;childLayout=stackLayout;horizontal=1;startSize=26;horizontalStack=0;resizeParent=1;resizeParentMax=0;resizeLast=0;collapsible=1;marginBottom=0;whiteSpace=wrap;html=1;" vertex="1" parent="1">
          <mxGeometry x="780" y="698" width="190" height="34" as="geometry" />
        </mxCell>
        <mxCell id="4IAgEV4bC5tVAGo7Nsea-15" value="" style="line;strokeWidth=1;fillColor=none;align=left;verticalAlign=middle;spacingTop=-1;spacingLeft=3;spacingRight=3;rotatable=0;labelPosition=right;points=[];portConstraint=eastwest;strokeColor=inherit;" vertex="1" parent="4IAgEV4bC5tVAGo7Nsea-14">
          <mxGeometry y="26" width="190" height="8" as="geometry" />
        </mxCell>
        <mxCell id="4IAgEV4bC5tVAGo7Nsea-16" value="RocketRepository" style="swimlane;fontStyle=1;align=center;verticalAlign=top;childLayout=stackLayout;horizontal=1;startSize=26;horizontalStack=0;resizeParent=1;resizeParentMax=0;resizeLast=0;collapsible=1;marginBottom=0;whiteSpace=wrap;html=1;" vertex="1" parent="1">
          <mxGeometry x="1226" y="690" width="240" height="34" as="geometry" />
        </mxCell>
        <mxCell id="4IAgEV4bC5tVAGo7Nsea-17" value="" style="line;strokeWidth=1;fillColor=none;align=left;verticalAlign=middle;spacingTop=-1;spacingLeft=3;spacingRight=3;rotatable=0;labelPosition=right;points=[];portConstraint=eastwest;strokeColor=inherit;" vertex="1" parent="4IAgEV4bC5tVAGo7Nsea-16">
          <mxGeometry y="26" width="240" height="8" as="geometry" />
        </mxCell>
        <mxCell id="4IAgEV4bC5tVAGo7Nsea-18" value="PlatformRepositoryContract" style="swimlane;fontStyle=1;align=center;verticalAlign=top;childLayout=stackLayout;horizontal=1;startSize=26;horizontalStack=0;resizeParent=1;resizeParentMax=0;resizeLast=0;collapsible=1;marginBottom=0;whiteSpace=wrap;html=1;" vertex="1" parent="1">
          <mxGeometry x="780" y="622" width="190" height="34" as="geometry" />
        </mxCell>
        <mxCell id="4IAgEV4bC5tVAGo7Nsea-19" value="" style="line;strokeWidth=1;fillColor=none;align=left;verticalAlign=middle;spacingTop=-1;spacingLeft=3;spacingRight=3;rotatable=0;labelPosition=right;points=[];portConstraint=eastwest;strokeColor=inherit;" vertex="1" parent="4IAgEV4bC5tVAGo7Nsea-18">
          <mxGeometry y="26" width="190" height="8" as="geometry" />
        </mxCell>
        <mxCell id="4IAgEV4bC5tVAGo7Nsea-20" value="RocketRepositoryContract" style="swimlane;fontStyle=1;align=center;verticalAlign=top;childLayout=stackLayout;horizontal=1;startSize=26;horizontalStack=0;resizeParent=1;resizeParentMax=0;resizeLast=0;collapsible=1;marginBottom=0;whiteSpace=wrap;html=1;" vertex="1" parent="1">
          <mxGeometry x="1226" y="550" width="240" height="34" as="geometry" />
        </mxCell>
        <mxCell id="4IAgEV4bC5tVAGo7Nsea-21" value="" style="line;strokeWidth=1;fillColor=none;align=left;verticalAlign=middle;spacingTop=-1;spacingLeft=3;spacingRight=3;rotatable=0;labelPosition=right;points=[];portConstraint=eastwest;strokeColor=inherit;" vertex="1" parent="4IAgEV4bC5tVAGo7Nsea-20">
          <mxGeometry y="26" width="240" height="8" as="geometry" />
        </mxCell>
        <mxCell id="4IAgEV4bC5tVAGo7Nsea-22" value="" style="endArrow=block;dashed=1;endFill=0;endSize=12;html=1;rounded=0;entryX=0.5;entryY=1;entryDx=0;entryDy=0;exitX=0.5;exitY=0;exitDx=0;exitDy=0;" edge="1" parent="1" source="4IAgEV4bC5tVAGo7Nsea-3" target="4IAgEV4bC5tVAGo7Nsea-5">
          <mxGeometry width="160" relative="1" as="geometry">
            <mxPoint x="560" y="702" as="sourcePoint" />
            <mxPoint x="720" y="702" as="targetPoint" />
          </mxGeometry>
        </mxCell>
        <mxCell id="4IAgEV4bC5tVAGo7Nsea-23" value="Use" style="endArrow=open;endSize=12;dashed=1;html=1;rounded=0;exitX=0.5;exitY=1;exitDx=0;exitDy=0;entryX=0.5;entryY=0;entryDx=0;entryDy=0;" edge="1" parent="1" source="4IAgEV4bC5tVAGo7Nsea-3" target="4IAgEV4bC5tVAGo7Nsea-18">
          <mxGeometry width="160" relative="1" as="geometry">
            <mxPoint x="700" y="722" as="sourcePoint" />
            <mxPoint x="875" y="602" as="targetPoint" />
          </mxGeometry>
        </mxCell>
        <mxCell id="4IAgEV4bC5tVAGo7Nsea-24" value="" style="endArrow=block;dashed=1;endFill=0;endSize=12;html=1;rounded=0;entryX=0.5;entryY=1;entryDx=0;entryDy=0;exitX=0.5;exitY=0;exitDx=0;exitDy=0;" edge="1" parent="1" source="4IAgEV4bC5tVAGo7Nsea-14" target="4IAgEV4bC5tVAGo7Nsea-18">
          <mxGeometry width="160" relative="1" as="geometry">
            <mxPoint x="710" y="822" as="sourcePoint" />
            <mxPoint x="870" y="822" as="targetPoint" />
          </mxGeometry>
        </mxCell>
        <mxCell id="4IAgEV4bC5tVAGo7Nsea-25" value="" style="endArrow=block;dashed=1;endFill=0;endSize=12;html=1;rounded=0;entryX=0.5;entryY=1;entryDx=0;entryDy=0;" edge="1" parent="1" source="4IAgEV4bC5tVAGo7Nsea-7">
          <mxGeometry width="160" relative="1" as="geometry">
            <mxPoint x="936" y="790" as="sourcePoint" />
            <mxPoint x="1111" y="440" as="targetPoint" />
          </mxGeometry>
        </mxCell>
        <mxCell id="4IAgEV4bC5tVAGo7Nsea-26" value="" style="endArrow=block;dashed=1;endFill=0;endSize=12;html=1;rounded=0;entryX=0.5;entryY=1;entryDx=0;entryDy=0;exitX=0.5;exitY=0;exitDx=0;exitDy=0;" edge="1" parent="1">
          <mxGeometry width="160" relative="1" as="geometry">
            <mxPoint x="1345.5" y="480" as="sourcePoint" />
            <mxPoint x="1345.5" y="440" as="targetPoint" />
          </mxGeometry>
        </mxCell>
        <mxCell id="4IAgEV4bC5tVAGo7Nsea-27" value="Use" style="endArrow=open;endSize=12;dashed=1;html=1;rounded=0;exitX=0.5;exitY=1;exitDx=0;exitDy=0;entryX=0.5;entryY=0;entryDx=0;entryDy=0;" edge="1" parent="1">
          <mxGeometry width="160" relative="1" as="geometry">
            <mxPoint x="1345.5" y="514" as="sourcePoint" />
            <mxPoint x="1345.5" y="550" as="targetPoint" />
          </mxGeometry>
        </mxCell>
        <mxCell id="4IAgEV4bC5tVAGo7Nsea-28" value="" style="endArrow=block;dashed=1;endFill=0;endSize=12;html=1;rounded=0;entryX=0.5;entryY=1;entryDx=0;entryDy=0;exitX=0.5;exitY=0;exitDx=0;exitDy=0;" edge="1" parent="1">
          <mxGeometry width="160" relative="1" as="geometry">
            <mxPoint x="1345.5" y="690" as="sourcePoint" />
            <mxPoint x="1345.5" y="584" as="targetPoint" />
          </mxGeometry>
        </mxCell>
        <mxCell id="4IAgEV4bC5tVAGo7Nsea-29" value="GrepUseCaseContract" style="swimlane;fontStyle=1;align=center;verticalAlign=top;childLayout=stackLayout;horizontal=1;startSize=26;horizontalStack=0;resizeParent=1;resizeParentMax=0;resizeLast=0;collapsible=1;marginBottom=0;whiteSpace=wrap;html=1;" vertex="1" parent="1">
          <mxGeometry x="1016" y="406" width="190" height="34" as="geometry" />
        </mxCell>
        <mxCell id="4IAgEV4bC5tVAGo7Nsea-30" value="" style="line;strokeWidth=1;fillColor=none;align=left;verticalAlign=middle;spacingTop=-1;spacingLeft=3;spacingRight=3;rotatable=0;labelPosition=right;points=[];portConstraint=eastwest;strokeColor=inherit;" vertex="1" parent="4IAgEV4bC5tVAGo7Nsea-29">
          <mxGeometry y="26" width="190" height="8" as="geometry" />
        </mxCell>
        <mxCell id="4IAgEV4bC5tVAGo7Nsea-31" value="Use" style="endArrow=open;endSize=12;dashed=1;html=1;rounded=0;entryX=0.5;entryY=0;entryDx=0;entryDy=0;" edge="1" parent="1" source="4IAgEV4bC5tVAGo7Nsea-1" target="4IAgEV4bC5tVAGo7Nsea-5">
          <mxGeometry width="160" relative="1" as="geometry">
            <mxPoint x="460" y="280" as="sourcePoint" />
            <mxPoint x="595" y="366" as="targetPoint" />
          </mxGeometry>
        </mxCell>
      </root>
    </mxGraphModel>
  </diagram>
  <diagram id="mWVFVY6X8_42BFvnPgLs" name="ビルドファイルにおける依存関係">
    <mxGraphModel dx="1615" dy="1900" grid="1" gridSize="10" guides="1" tooltips="1" connect="1" arrows="1" fold="1" page="1" pageScale="1" pageWidth="827" pageHeight="1169" math="0" shadow="0">
      <root>
        <mxCell id="0" />
        <mxCell id="1" parent="0" />
        <mxCell id="4YnRv_9-ElN73tlJssOn-1" value="" style="rounded=0;whiteSpace=wrap;html=1;" vertex="1" parent="1">
          <mxGeometry x="-210" y="-20" width="1050" height="480" as="geometry" />
        </mxCell>
        <mxCell id="4YnRv_9-ElN73tlJssOn-2" value="Android app" style="rounded=1;whiteSpace=wrap;html=1;fillColor=#cdeb8b;strokeColor=#36393d;" vertex="1" parent="1">
          <mxGeometry x="30" y="10" width="120" height="60" as="geometry" />
        </mxCell>
        <mxCell id="4YnRv_9-ElN73tlJssOn-3" value="iOS app" style="rounded=1;whiteSpace=wrap;html=1;fillColor=#eeeeee;strokeColor=#36393d;" vertex="1" parent="1">
          <mxGeometry x="230" y="10" width="120" height="60" as="geometry" />
        </mxCell>
        <mxCell id="4YnRv_9-ElN73tlJssOn-4" value=":shared" style="rounded=1;whiteSpace=wrap;html=1;fillColor=#ffcccc;strokeColor=#36393d;" vertex="1" parent="1">
          <mxGeometry x="120" y="150" width="160" height="60" as="geometry" />
        </mxCell>
        <mxCell id="4YnRv_9-ElN73tlJssOn-5" value=":shared:domain" style="rounded=1;whiteSpace=wrap;html=1;fillColor=#ffcc99;strokeColor=#36393d;" vertex="1" parent="1">
          <mxGeometry x="350" y="300" width="160" height="60" as="geometry" />
        </mxCell>
        <mxCell id="4YnRv_9-ElN73tlJssOn-6" value=":shared:data" style="rounded=1;whiteSpace=wrap;html=1;fillColor=#ffcc99;strokeColor=#36393d;" vertex="1" parent="1">
          <mxGeometry x="-110" y="300" width="160" height="60" as="geometry" />
        </mxCell>
        <mxCell id="4YnRv_9-ElN73tlJssOn-7" value=":shared:viewmodel" style="rounded=1;whiteSpace=wrap;html=1;fillColor=#ffcc99;strokeColor=#36393d;" vertex="1" parent="1">
          <mxGeometry x="120" y="300" width="160" height="60" as="geometry" />
        </mxCell>
        <mxCell id="4YnRv_9-ElN73tlJssOn-8" value="implementation" style="endArrow=open;endSize=12;dashed=1;html=1;rounded=0;exitX=0.5;exitY=1;exitDx=0;exitDy=0;entryX=0.25;entryY=0;entryDx=0;entryDy=0;" edge="1" parent="1" source="4YnRv_9-ElN73tlJssOn-2" target="4YnRv_9-ElN73tlJssOn-4">
          <mxGeometry width="160" relative="1" as="geometry">
            <mxPoint x="60" y="140" as="sourcePoint" />
            <mxPoint x="220" y="140" as="targetPoint" />
          </mxGeometry>
        </mxCell>
        <mxCell id="4YnRv_9-ElN73tlJssOn-9" value="Search Path" style="endArrow=open;endSize=12;dashed=1;html=1;rounded=0;exitX=0.5;exitY=1;exitDx=0;exitDy=0;entryX=0.75;entryY=0;entryDx=0;entryDy=0;" edge="1" parent="1" source="4YnRv_9-ElN73tlJssOn-3" target="4YnRv_9-ElN73tlJssOn-4">
          <mxGeometry width="160" relative="1" as="geometry">
            <mxPoint x="100" y="80" as="sourcePoint" />
            <mxPoint x="170" y="160" as="targetPoint" />
          </mxGeometry>
        </mxCell>
        <mxCell id="4YnRv_9-ElN73tlJssOn-10" value="api" style="endArrow=open;endSize=12;dashed=1;html=1;rounded=0;exitX=0.5;exitY=1;exitDx=0;exitDy=0;entryX=0.5;entryY=0;entryDx=0;entryDy=0;" edge="1" parent="1" source="4YnRv_9-ElN73tlJssOn-4" target="4YnRv_9-ElN73tlJssOn-7">
          <mxGeometry width="160" relative="1" as="geometry">
            <mxPoint x="100" y="80" as="sourcePoint" />
            <mxPoint x="170" y="160" as="targetPoint" />
          </mxGeometry>
        </mxCell>
        <mxCell id="4YnRv_9-ElN73tlJssOn-11" value="implementation" style="endArrow=open;endSize=12;dashed=1;html=1;rounded=0;exitX=0.25;exitY=1;exitDx=0;exitDy=0;entryX=0.5;entryY=0;entryDx=0;entryDy=0;" edge="1" parent="1" source="4YnRv_9-ElN73tlJssOn-4" target="4YnRv_9-ElN73tlJssOn-6">
          <mxGeometry width="160" relative="1" as="geometry">
            <mxPoint x="170" y="220" as="sourcePoint" />
            <mxPoint x="90" y="310" as="targetPoint" />
          </mxGeometry>
        </mxCell>
        <mxCell id="4YnRv_9-ElN73tlJssOn-12" value="api" style="endArrow=open;endSize=12;dashed=1;html=1;rounded=0;exitX=0.75;exitY=1;exitDx=0;exitDy=0;entryX=0.5;entryY=0;entryDx=0;entryDy=0;" edge="1" parent="1" source="4YnRv_9-ElN73tlJssOn-4" target="4YnRv_9-ElN73tlJssOn-5">
          <mxGeometry x="-0.0011" width="160" relative="1" as="geometry">
            <mxPoint x="170" y="220" as="sourcePoint" />
            <mxPoint x="90" y="310" as="targetPoint" />
            <mxPoint as="offset" />
          </mxGeometry>
        </mxCell>
        <mxCell id="4YnRv_9-ElN73tlJssOn-14" value="kmp-tutorial プロジェクト" style="rounded=1;whiteSpace=wrap;html=1;arcSize=6;horizontal=1;verticalAlign=top;" vertex="1" parent="1">
          <mxGeometry x="550" y="220" width="250" height="210" as="geometry" />
        </mxCell>
        <mxCell id="4YnRv_9-ElN73tlJssOn-15" value=":kmp-tutorial-shared" style="rounded=1;whiteSpace=wrap;html=1;fillColor=#ffcc99;strokeColor=#36393d;" vertex="1" parent="1">
          <mxGeometry x="595" y="300" width="160" height="60" as="geometry" />
        </mxCell>
        <mxCell id="4YnRv_9-ElN73tlJssOn-16" value="api" style="endArrow=open;endSize=12;dashed=1;html=1;rounded=0;exitX=1;exitY=0.5;exitDx=0;exitDy=0;entryX=0.25;entryY=0;entryDx=0;entryDy=0;" edge="1" parent="1" source="4YnRv_9-ElN73tlJssOn-4" target="4YnRv_9-ElN73tlJssOn-15">
          <mxGeometry width="160" relative="1" as="geometry">
            <mxPoint x="242" y="219" as="sourcePoint" />
            <mxPoint x="330" y="310" as="targetPoint" />
          </mxGeometry>
        </mxCell>
      </root>
    </mxGraphModel>
  </diagram>
</mxfile>
